<svg version="1.1" id="Layer_1" xmlns="http://www.w3.org/2000/svg" xmlns:xlink="http://www.w3.org/1999/xlink" x="0px" y="0px"
	 width="100%" viewBox="0 0 400 380" enable-background="new 0 0 400 380" xml:space="preserve">
<path fill="#010101" opacity="1.000000" stroke="none" 
	d="
M219.000000,381.000000 
	C146.000015,381.000000 73.500023,381.000000 1.000029,381.000000 
	C1.000019,254.333374 1.000019,127.666740 1.000010,1.000080 
	C134.333267,1.000053 267.666534,1.000053 400.999878,1.000027 
	C400.999908,127.666588 400.999908,254.333176 400.999939,380.999878 
	C340.500000,381.000000 280.000000,381.000000 219.000000,381.000000 
M314.134674,231.513977 
	C314.316925,231.782654 314.553589,231.988953 315.056244,232.812286 
	C316.807617,233.437973 318.558960,234.063675 320.310333,234.689362 
	C320.472107,234.061371 320.633850,233.433365 320.795624,232.805359 
	C318.899567,232.493774 317.003540,232.182175 314.842590,231.479050 
	C314.636047,231.229416 314.380920,231.048141 313.941193,230.729477 
	C313.941193,230.729477 313.581757,230.773682 313.581757,230.773682 
	C313.581757,230.773682 313.924225,231.090805 314.134674,231.513977 
M350.478333,99.003624 
	C350.242035,98.934677 350.005768,98.865723 349.523010,99.046082 
	C349.754517,99.111061 349.985992,99.176041 350.478333,99.003624 
M326.470856,226.964935 
	C326.255249,227.117813 326.039612,227.270676 325.824005,227.423538 
	C326.247498,227.304764 326.670990,227.185974 327.506317,226.693604 
	C327.750122,226.198166 327.993927,225.702713 328.856537,224.956055 
	C329.532501,223.914734 330.208496,222.873398 330.884460,221.832062 
	C330.349762,221.550110 329.815033,221.268158 329.280334,220.986206 
	C328.799164,222.283997 328.317993,223.581772 327.460571,225.307388 
	C327.272034,225.837906 327.083466,226.368423 326.470856,226.964935 
M194.426117,364.967255 
	C194.195801,365.384796 193.965500,365.802368 193.735199,366.219940 
	C194.197250,365.840424 194.659286,365.460907 195.299255,364.930634 
	C195.299255,364.930634 195.248749,364.577728 195.248749,364.577728 
	C195.248749,364.577728 194.914032,364.870422 194.426117,364.967255 
M316.060333,226.357559 
	C316.164246,226.369934 316.268127,226.382309 316.372040,226.394699 
	C316.314026,226.209061 316.255981,226.023407 316.049530,225.239426 
	C315.441284,224.738464 314.833038,224.237503 314.178986,222.923920 
	C314.178986,220.458527 314.178986,217.993118 314.178986,215.527725 
	C313.843445,215.517990 313.507904,215.508270 313.172363,215.498535 
	C312.458984,216.773422 311.745575,218.048325 311.032166,219.323212 
	C310.722717,219.228058 310.413269,219.132904 310.103821,219.037735 
	C310.227722,216.681320 310.351624,214.324890 310.475525,211.968475 
	C309.931091,211.953629 309.386658,211.938782 308.842224,211.923920 
	C308.510773,216.556290 308.179321,221.188660 307.847839,225.821014 
	C308.334656,225.888138 308.821442,225.955246 309.308258,226.022354 
	C309.826721,224.853180 310.345184,223.684006 310.885956,222.464554 
	C312.068726,223.193909 312.904572,223.709351 313.991455,224.771088 
	C314.613770,225.239105 315.236115,225.707108 316.060333,226.357559 
M325.327362,232.933243 
	C324.761719,233.311554 324.196075,233.689865 323.630432,234.068192 
	C323.819580,234.297943 324.008728,234.527710 324.197876,234.757477 
	C324.827484,234.194275 325.457092,233.631088 326.270538,232.927170 
	C326.270538,232.927170 326.243561,232.595047 326.243561,232.595047 
	C326.243561,232.595047 325.924713,232.904633 325.327362,232.933243 
M318.937225,227.635193 
	C318.833466,227.613556 318.729675,227.591934 318.625916,227.570297 
	C318.698853,227.756348 318.771790,227.942398 319.089630,228.751968 
	C320.281677,229.237778 321.473694,229.723587 322.665741,230.209396 
	C322.806793,229.804672 322.947876,229.399963 323.088928,228.995239 
	C321.767212,228.612885 320.445496,228.230515 318.937225,227.635193 
M339.806152,219.110840 
	C340.767853,218.192886 341.729553,217.274948 342.691284,216.356995 
	C342.326935,216.053070 341.962585,215.749146 341.598236,215.445221 
	C340.664551,216.574799 339.730835,217.704376 338.595520,219.055420 
	C338.786102,219.103653 338.976685,219.151901 339.806152,219.110840 
M335.926483,215.079559 
	C336.947784,214.049698 337.969086,213.019836 339.693878,211.707504 
	C342.912598,210.885422 346.131317,210.063339 349.350006,209.241257 
	C349.140930,208.694977 348.931824,208.148697 348.722748,207.602432 
	C345.485168,209.071579 342.247620,210.540726 338.292175,212.021484 
	C337.138611,212.968536 335.985016,213.915573 334.327911,215.203903 
	C334.018372,215.905273 333.708801,216.606628 333.399261,217.307999 
	C333.673279,217.418427 333.947266,217.528854 334.221283,217.639282 
	C334.547241,216.816971 334.873199,215.994659 335.926483,215.079559 
M342.946350,240.702576 
	C344.708008,241.634186 346.469696,242.565796 348.231354,243.497406 
	C348.465576,242.946899 348.699799,242.396408 348.934021,241.845901 
	C347.012634,241.166885 345.091278,240.487869 343.578918,239.351166 
	C344.563721,238.597458 345.548523,237.843750 346.533325,237.090042 
	C346.234680,236.636353 345.936035,236.182678 345.637390,235.728989 
	C344.202301,236.492630 342.767242,237.256271 341.332153,238.019928 
	C341.803894,238.751297 342.275635,239.482681 342.946350,240.702576 
M322.722504,203.477280 
	C322.197845,203.443619 321.673218,203.409958 321.148560,203.376282 
	C321.145172,203.545410 321.141785,203.714539 321.138428,203.883667 
	C321.714142,203.973145 322.289886,204.062637 323.029694,204.693665 
	C322.464783,206.330063 321.899902,207.966476 321.011627,210.539597 
	C323.191193,209.231842 324.973907,208.162201 326.756592,207.092545 
	C325.534088,206.019760 324.311615,204.946976 322.722504,203.477280 
M340.177185,165.023621 
	C333.691010,165.017090 327.203186,164.927765 320.719574,165.053268 
	C318.712494,165.092117 316.716705,165.715149 314.042938,166.451904 
	C313.687134,169.480118 313.645721,172.587311 312.909088,175.519867 
	C311.448029,181.336533 314.865631,182.403427 319.395203,182.947266 
	C320.114227,180.188751 320.786133,177.610931 321.505798,174.849854 
	C326.186584,174.849854 330.487366,174.849854 335.659607,174.994629 
	C337.116028,175.020615 338.572479,175.046600 340.005280,174.997604 
	C340.005280,174.997604 339.930176,175.020813 340.382111,175.773148 
	C346.487030,175.851379 352.608032,175.686707 358.691406,176.089935 
	C363.026276,176.377289 367.939697,175.551208 371.224304,180.775665 
	C372.765594,181.394104 374.306854,182.012558 375.848145,182.630997 
	C376.227509,181.126129 376.865326,179.633041 376.934509,178.114059 
	C377.097717,174.529633 376.990143,170.932877 376.868195,166.407410 
	C365.231232,166.264923 353.594238,166.122421 341.985077,166.040695 
	C341.985077,166.040695 342.046753,166.014984 341.773743,165.709320 
	C341.597961,165.468506 341.361298,165.356674 340.177185,165.023621 
M149.625549,277.503632 
	C152.597794,277.699860 155.570053,277.896088 158.542297,278.092316 
	C158.547562,277.729828 158.552841,277.367371 158.558105,277.004883 
	C155.370453,277.004883 152.182785,277.004883 149.157898,276.185699 
	C149.492569,271.455505 149.827255,266.725342 150.161942,261.995148 
	C149.358826,262.001251 148.555725,262.007324 147.752625,262.013428 
	C148.169022,267.007874 148.585403,272.002289 149.625549,277.503632 
M342.276367,109.172707 
	C340.619934,112.819077 343.645264,113.628723 345.788177,113.924286 
	C349.272919,114.404907 352.872375,114.053902 356.423401,114.053902 
	C354.968689,112.594833 353.163605,112.412514 351.449371,111.916252 
	C348.677429,111.113777 345.965240,110.104889 343.558105,108.848770 
	C343.524078,108.466812 343.490051,108.084854 343.456055,107.702888 
	C343.224670,108.065247 342.993317,108.427605 342.276367,109.172707 
M346.921387,104.521225 
	C346.204712,104.521225 345.488068,104.521225 344.771393,104.521225 
	C344.826477,104.931381 344.881531,105.341545 344.936615,105.751701 
	C345.629303,105.494072 346.321960,105.236443 347.336853,105.628235 
	C348.501343,109.711296 351.758942,110.210197 355.150879,109.741753 
	C356.177124,109.600029 357.643036,107.930519 357.742279,106.853470 
	C357.905518,105.080963 357.118805,103.220955 356.732544,101.397835 
	C355.413910,101.830353 354.078186,102.217567 352.780609,102.706009 
	C350.835083,103.438324 348.916321,104.241692 346.921387,104.521225 
M352.916046,210.776215 
	C352.916046,210.776215 352.619751,210.770920 352.619751,210.770920 
	C352.619751,210.770920 352.989655,211.007919 353.115387,211.686218 
	C353.628082,213.184128 354.140778,214.682037 354.670990,216.231064 
	C353.291595,216.493393 352.316803,216.678787 351.152710,216.900177 
	C356.810211,224.943604 356.810211,224.943604 352.548065,233.013840 
	C355.983734,233.405640 356.307251,234.949570 354.469910,237.645187 
	C353.756805,238.691422 353.777374,240.237747 353.463745,241.556274 
	C356.723297,238.172791 359.142548,234.848984 360.865601,231.196732 
	C364.817810,222.819473 361.067383,213.524979 352.916046,210.776215 
M138.546539,40.971348 
	C133.727859,42.017799 132.772537,38.811626 132.015198,35.185760 
	C131.302261,31.772478 130.361679,28.406746 129.394501,24.509260 
	C120.992310,28.334295 112.487762,26.917196 104.807747,30.434975 
	C98.567665,33.293205 98.250938,32.645996 100.117935,39.348709 
	C100.465965,40.598175 101.530205,41.860367 101.371964,42.991959 
	C101.091507,44.997612 100.690102,47.573227 99.333237,48.720921 
	C96.389313,51.211010 92.764572,52.880188 89.502464,55.013844 
	C84.542847,58.257793 83.039436,58.129154 78.985397,53.798019 
	C73.490402,47.927437 70.060852,48.143627 65.032715,54.363804 
	C63.121227,56.728466 60.600784,58.593716 58.615650,60.907719 
	C55.806095,64.182732 53.235363,67.662628 50.326332,71.354752 
	C54.152576,74.651337 57.525341,77.303680 60.530510,80.322006 
	C61.296089,81.090935 61.385719,83.210091 60.934566,84.380768 
	C59.781143,87.373703 57.532574,90.041054 56.834682,93.093063 
	C55.364998,99.520241 52.229805,102.415169 45.728390,101.947868 
	C43.787437,101.808357 41.881390,101.236763 39.942619,101.000336 
	C37.287052,100.676491 36.100292,101.738052 35.924812,104.618248 
	C35.435036,112.657112 34.830097,120.701317 33.853466,128.692429 
	C33.427399,132.178650 34.802254,132.957855 37.749031,133.069504 
	C41.654541,133.217484 45.552425,133.566620 49.222664,133.813751 
	C50.871185,140.118408 52.471397,145.876175 53.815567,151.693115 
	C54.075550,152.818192 53.760166,154.717773 52.980560,155.328156 
	C49.943813,157.705719 46.727150,159.913467 43.354542,161.782120 
	C40.890285,163.147491 40.385426,164.161652 42.048046,166.715546 
	C45.860081,172.571075 49.541859,178.544357 52.778530,184.730392 
	C55.105022,189.176880 57.539619,190.431229 61.972324,188.031815 
	C63.540306,187.183075 64.923256,185.998672 66.463776,185.091629 
	C69.109512,183.533829 71.402672,182.562866 73.759186,186.090393 
	C75.554451,188.777786 78.189514,191.124939 80.912033,192.926819 
	C86.838577,196.849289 86.977020,196.675003 84.237404,203.292267 
	C83.562897,204.921478 82.931755,206.629059 81.923950,208.047089 
	C79.938492,210.840714 80.858475,212.676208 83.579521,213.949844 
	C89.553398,216.746033 95.565514,219.461243 101.578110,222.173843 
	C109.342064,225.676590 110.884109,224.897598 113.021286,216.483276 
	C114.189903,211.882309 116.747124,210.394089 121.367554,211.196060 
	C125.865181,211.976700 130.451294,212.268372 134.927353,213.140244 
	C136.362396,213.419785 138.192032,214.589783 138.741425,215.836868 
	C139.633057,217.860733 139.721375,220.273117 139.964096,222.541245 
	C140.503265,227.579056 142.552277,228.965652 147.620422,227.782394 
	C153.335297,226.448181 159.061951,225.150497 164.817398,224.007736 
	C171.801453,222.621048 172.320831,221.866425 171.043961,214.521179 
	C170.518524,211.498566 170.246460,208.431915 169.974518,206.292755 
	C175.507599,202.961487 180.459457,200.259872 185.075836,197.072403 
	C187.115494,195.664047 188.455368,195.172913 190.408066,196.911255 
	C193.565506,199.722076 196.865250,202.373077 200.871078,205.734482 
	C207.716751,197.745453 214.456146,189.880463 221.367294,181.815018 
	C218.087845,179.051147 215.004395,176.614731 212.139130,173.944244 
	C211.213516,173.081528 210.043777,171.268585 210.375351,170.460541 
	C213.066727,163.901627 216.088562,157.478287 218.785034,151.510834 
	C222.773972,151.758392 226.064072,151.671906 229.242508,152.225952 
	C234.388458,153.122971 235.758163,152.272430 236.042282,147.242599 
	C236.474777,139.585846 236.957199,131.931778 237.348785,124.273010 
	C237.398071,123.309196 237.189697,121.545715 236.824005,121.468842 
	C233.169052,120.700455 229.396362,119.525299 225.777298,119.841835 
	C222.554779,120.123703 221.653564,119.034843 221.171036,116.451088 
	C220.155807,111.015015 219.008896,105.598976 218.196167,100.133057 
	C218.010117,98.881805 218.555496,96.965408 219.469223,96.224236 
	C221.304596,94.735474 223.592529,93.777328 225.754196,92.724411 
	C229.149200,91.070747 231.040985,88.976692 228.628311,85.117317 
	C225.395142,79.945457 222.296799,74.688889 219.036377,69.534576 
	C214.775436,62.798580 213.626358,62.593040 206.640884,66.898048 
	C205.952469,67.322311 205.187683,67.650200 204.571884,68.159966 
	C202.033432,70.261269 200.119400,69.531815 198.005295,67.281937 
	C196.025436,65.174942 193.721771,63.269588 191.277374,61.723175 
	C186.261826,58.550137 184.848953,54.863064 187.011536,49.399246 
	C187.370392,48.492569 187.711426,47.578480 188.087738,46.679123 
	C190.190887,41.652775 189.456955,40.045094 184.687958,37.970322 
	C178.360199,35.217415 172.231628,31.966698 165.781036,29.564901 
	C164.224991,28.985523 160.858444,30.310196 159.863861,31.792280 
	C157.741425,34.955067 156.626984,38.794281 155.018219,42.546055 
	C149.824966,42.028683 144.635361,41.511673 138.546539,40.971348 
M139.675400,309.046936 
	C139.112762,309.980957 138.237427,310.851776 138.034119,311.858368 
	C134.687302,328.427856 131.568314,345.044617 128.083496,361.584473 
	C126.341301,369.853455 127.914108,372.050629 136.699478,371.988892 
	C137.864014,371.980713 139.174271,372.321503 140.158279,371.898590 
	C141.556931,371.297546 142.715729,370.138367 143.977005,369.217651 
	C142.860107,368.152374 141.846924,366.344269 140.605499,366.170959 
	C137.699600,365.765259 137.322708,364.714142 137.899536,362.018646 
	C140.715759,348.858887 143.680817,335.710358 145.777176,322.429077 
	C146.451019,318.159912 147.398712,316.583008 151.662872,316.849976 
	C152.706131,316.915283 154.061676,315.308319 154.867767,314.180176 
	C155.180878,313.741974 154.639572,312.154022 154.029465,311.682739 
	C150.015625,308.582214 145.732635,306.355652 139.675400,309.046936 
M334.058319,106.317703 
	C334.069733,104.492607 334.094330,102.667488 334.090363,100.842430 
	C334.072968,92.889969 333.109314,92.015274 325.078400,93.005241 
	C324.079346,93.128380 322.678040,93.721695 322.357330,94.476891 
	C322.082672,95.123688 323.109589,96.306435 323.526154,97.267189 
	C324.315979,99.088890 325.775330,100.939903 325.727112,102.745903 
	C325.577789,108.338341 324.850891,113.915367 324.310730,119.914177 
	C327.715118,122.713837 332.812256,123.041992 337.073364,120.723648 
	C336.034088,116.093475 335.041748,111.672424 334.058319,106.317703 
M294.330750,155.211853 
	C294.828613,154.660629 295.755035,154.113235 295.760010,153.557602 
	C295.835541,145.103714 295.807220,136.648621 295.732147,128.194427 
	C295.727631,127.687973 295.124420,127.186829 294.163544,125.696243 
	C294.163544,136.037491 294.163544,145.237808 294.330750,155.211853 
M361.595215,94.352943 
	C359.869659,93.607178 358.144073,92.861404 356.418518,92.115639 
	C356.133911,92.624825 355.849304,93.134018 355.564697,93.643204 
	C360.383667,93.784515 360.213593,96.544342 359.597076,99.787102 
	C358.317657,106.516754 359.378967,108.660927 364.275604,111.185669 
	C363.588562,107.277969 362.793610,102.917160 362.072327,98.544189 
	C361.885834,97.413483 361.930481,96.244644 361.595215,94.352943 
M363.880219,117.918694 
	C359.939301,121.226082 356.016754,120.819717 353.230286,116.933197 
	C353.003784,118.575401 353.263611,121.527893 353.641388,121.543068 
	C357.220367,121.686790 360.845337,121.502998 364.390167,120.969383 
	C365.074219,120.866409 365.467346,118.830719 365.994690,117.686592 
	C365.415009,117.570175 364.835327,117.453758 363.880219,117.918694 
M180.009598,348.392944 
	C180.009598,351.009125 180.009598,353.625305 180.009598,356.241486 
	C180.287506,356.239563 180.565430,356.237640 180.843338,356.235718 
	C180.843338,346.424255 180.843338,336.612793 180.843338,326.801331 
	C180.565414,326.795319 180.287476,326.789276 180.009552,326.783264 
	C180.009552,333.662720 180.009552,340.542145 180.009598,348.392944 
M189.346054,356.697937 
	C188.806534,356.106812 188.267014,355.515717 187.297104,354.453064 
	C188.404678,362.009491 188.404678,362.009491 194.263321,362.324646 
	C192.918243,360.876495 191.276031,359.108368 189.346054,356.697937 
M189.338623,319.674774 
	C184.155060,320.581909 184.155060,320.581909 185.275497,323.414978 
	C186.734634,322.805756 188.239258,322.329193 189.553452,321.536835 
	C189.950592,321.297333 189.819794,320.182220 189.338623,319.674774 
M313.993286,205.202728 
	C313.217865,206.602524 312.442413,208.002319 311.666992,209.402115 
	C312.399536,209.605347 313.132050,209.808594 313.864594,210.011841 
	C314.073456,208.324402 314.282349,206.636978 313.993286,205.202728 
M173.085327,317.096832 
	C173.540848,318.566467 173.996384,320.036133 174.451904,321.505768 
	C174.932846,321.247406 175.413803,320.989044 175.894745,320.730713 
	C174.990372,319.316010 174.086014,317.901337 173.085327,317.096832 
M177.821228,361.935822 
	C179.500336,361.702759 181.179443,361.469696 182.858536,361.236633 
	C182.702454,360.659241 182.546356,360.081848 182.390274,359.504456 
	C180.702164,360.220245 179.014053,360.936005 177.821228,361.935822 
M355.129547,243.968811 
	C353.730530,243.647369 352.331512,243.325928 350.932465,243.004486 
	C350.913025,243.613281 350.893555,244.222076 350.874084,244.830872 
	C352.211700,244.724747 353.549316,244.618637 355.129547,243.968811 
M317.056305,212.627472 
	C317.625397,212.163925 318.194489,211.700378 318.763550,211.236847 
	C318.568909,210.956604 318.374268,210.676376 318.179657,210.396133 
	C316.905029,211.159363 315.630402,211.922592 314.355774,212.685822 
	C314.548676,213.011505 314.741577,213.337189 314.934479,213.662857 
	C315.478302,213.440491 316.022125,213.218109 317.056305,212.627472 
M317.046600,201.347351 
	C316.040100,201.583801 315.033630,201.820251 314.027130,202.056686 
	C314.212982,202.479889 314.398804,202.903076 314.584625,203.326263 
	C315.535248,202.818146 316.485901,202.310013 317.046600,201.347351 
M362.216187,115.596359 
	C362.131256,114.944305 362.046326,114.292252 361.961395,113.640190 
	C361.538971,113.697815 361.116516,113.755440 360.694092,113.813072 
	C361.008148,114.435020 361.322205,115.056976 362.216187,115.596359 
M187.593658,339.681519 
	C187.264847,339.405548 186.936035,339.129608 186.607208,338.853668 
	C186.468063,339.116577 186.328918,339.379486 186.189774,339.642426 
	C186.630188,339.811493 187.070618,339.980591 187.593658,339.681519 
M176.523163,365.147583 
	C176.823120,365.090454 177.123077,365.033295 177.423035,364.976166 
	C177.125381,364.907837 176.827728,364.839478 176.523163,365.147583 
M180.472351,324.169861 
	C180.791046,324.108704 181.109726,324.047546 181.428421,323.986359 
	C181.110764,323.913208 180.793091,323.840057 180.472351,324.169861 
M331.954163,228.623199 
	C332.154602,228.354172 332.355011,228.085129 332.555450,227.816086 
	C332.267822,227.994049 331.980225,228.172012 331.954163,228.623199 
M329.597290,231.245544 
	C329.718262,230.961273 329.839264,230.677017 329.960236,230.392761 
	C329.766724,230.588959 329.573181,230.785172 329.597290,231.245544 
M350.161987,234.286270 
	C350.080048,234.433578 349.998077,234.580902 349.916138,234.728195 
	C350.048920,234.664154 350.181671,234.600098 350.161987,234.286270 
M177.479416,322.266785 
	C177.417389,322.211731 177.355347,322.156677 177.479416,322.266785 
M335.873779,223.657501 
	C335.942261,223.538528 336.010742,223.419556 336.079224,223.300568 
	C335.973755,223.351303 335.868256,223.402023 335.873779,223.657501 
M310.229156,229.181458 
	C310.408173,229.123016 310.587158,229.064590 310.766174,229.006165 
	C310.586578,228.949417 310.406982,228.892670 310.229156,229.181458 
M334.816071,225.252838 
	C334.871185,225.430069 334.926300,225.607285 334.981415,225.784515 
	C335.037994,225.606339 335.094604,225.428177 334.816071,225.252838 
M348.488647,101.552216 
	C348.488647,101.552216 348.443542,101.462730 348.488647,101.552216 
M176.509735,315.453278 
	C176.509735,315.453278 176.540619,315.517578 176.509735,315.453278 
M332.595398,219.517181 
	C332.595398,219.517181 332.483124,219.584152 332.595398,219.517181 
z"/>
<path fill="#FF5527" opacity="1.000000" stroke="none" 
	d="
M138.996155,40.983006 
	C144.635361,41.511673 149.824966,42.028683 155.018219,42.546055 
	C156.626984,38.794281 157.741425,34.955067 159.863861,31.792280 
	C160.858444,30.310196 164.224991,28.985523 165.781036,29.564901 
	C172.231628,31.966698 178.360199,35.217415 184.687958,37.970322 
	C189.456955,40.045094 190.190887,41.652775 188.087738,46.679123 
	C187.711426,47.578480 187.370392,48.492569 187.011536,49.399246 
	C184.848953,54.863064 186.261826,58.550137 191.277374,61.723175 
	C193.721771,63.269588 196.025436,65.174942 198.005295,67.281937 
	C200.119400,69.531815 202.033432,70.261269 204.571884,68.159966 
	C205.187683,67.650200 205.952469,67.322311 206.640884,66.898048 
	C213.626358,62.593040 214.775436,62.798580 219.036377,69.534576 
	C222.296799,74.688889 225.395142,79.945457 228.628311,85.117317 
	C231.040985,88.976692 229.149200,91.070747 225.754196,92.724411 
	C223.592529,93.777328 221.304596,94.735474 219.469223,96.224236 
	C218.555496,96.965408 218.010117,98.881805 218.196167,100.133057 
	C219.008896,105.598976 220.155807,111.015015 221.171036,116.451088 
	C221.653564,119.034843 222.554779,120.123703 225.777298,119.841835 
	C229.396362,119.525299 233.169052,120.700455 236.824005,121.468842 
	C237.189697,121.545715 237.398071,123.309196 237.348785,124.273010 
	C236.957199,131.931778 236.474777,139.585846 236.042282,147.242599 
	C235.758163,152.272430 234.388458,153.122971 229.242508,152.225952 
	C226.064072,151.671906 222.773972,151.758392 218.785034,151.510834 
	C216.088562,157.478287 213.066727,163.901627 210.375351,170.460541 
	C210.043777,171.268585 211.213516,173.081528 212.139130,173.944244 
	C215.004395,176.614731 218.087845,179.051147 221.367294,181.815018 
	C214.456146,189.880463 207.716751,197.745453 200.871078,205.734482 
	C196.865250,202.373077 193.565506,199.722076 190.408066,196.911255 
	C188.455368,195.172913 187.115494,195.664047 185.075836,197.072403 
	C180.459457,200.259872 175.507599,202.961487 169.974518,206.292755 
	C170.246460,208.431915 170.518524,211.498566 171.043961,214.521179 
	C172.320831,221.866425 171.801453,222.621048 164.817398,224.007736 
	C159.061951,225.150497 153.335297,226.448181 147.620422,227.782394 
	C142.552277,228.965652 140.503265,227.579056 139.964096,222.541245 
	C139.721375,220.273117 139.633057,217.860733 138.741425,215.836868 
	C138.192032,214.589783 136.362396,213.419785 134.927353,213.140244 
	C130.451294,212.268372 125.865181,211.976700 121.367554,211.196060 
	C116.747124,210.394089 114.189903,211.882309 113.021286,216.483276 
	C110.884109,224.897598 109.342064,225.676590 101.578110,222.173843 
	C95.565514,219.461243 89.553398,216.746033 83.579521,213.949844 
	C80.858475,212.676208 79.938492,210.840714 81.923950,208.047089 
	C82.931755,206.629059 83.562897,204.921478 84.237404,203.292267 
	C86.977020,196.675003 86.838577,196.849289 80.912033,192.926819 
	C78.189514,191.124939 75.554451,188.777786 73.759186,186.090393 
	C71.402672,182.562866 69.109512,183.533829 66.463776,185.091629 
	C64.923256,185.998672 63.540306,187.183075 61.972324,188.031815 
	C57.539619,190.431229 55.105022,189.176880 52.778530,184.730392 
	C49.541859,178.544357 45.860081,172.571075 42.048046,166.715546 
	C40.385426,164.161652 40.890285,163.147491 43.354542,161.782120 
	C46.727150,159.913467 49.943813,157.705719 52.980560,155.328156 
	C53.760166,154.717773 54.075550,152.818192 53.815567,151.693115 
	C52.471397,145.876175 50.871185,140.118408 49.222664,133.813751 
	C45.552425,133.566620 41.654541,133.217484 37.749031,133.069504 
	C34.802254,132.957855 33.427399,132.178650 33.853466,128.692429 
	C34.830097,120.701317 35.435036,112.657112 35.924812,104.618248 
	C36.100292,101.738052 37.287052,100.676491 39.942619,101.000336 
	C41.881390,101.236763 43.787437,101.808357 45.728390,101.947868 
	C52.229805,102.415169 55.364998,99.520241 56.834682,93.093063 
	C57.532574,90.041054 59.781143,87.373703 60.934566,84.380768 
	C61.385719,83.210091 61.296089,81.090935 60.530510,80.322006 
	C57.525341,77.303680 54.152576,74.651337 50.326332,71.354752 
	C53.235363,67.662628 55.806095,64.182732 58.615650,60.907719 
	C60.600784,58.593716 63.121227,56.728466 65.032715,54.363804 
	C70.060852,48.143627 73.490402,47.927437 78.985397,53.798019 
	C83.039436,58.129154 84.542847,58.257793 89.502464,55.013844 
	C92.764572,52.880188 96.389313,51.211010 99.333237,48.720921 
	C100.690102,47.573227 101.091507,44.997612 101.371964,42.991959 
	C101.530205,41.860367 100.465965,40.598175 100.117935,39.348709 
	C98.250938,32.645996 98.567665,33.293205 104.807747,30.434975 
	C112.487762,26.917196 120.992310,28.334295 129.394501,24.509260 
	C130.361679,28.406746 131.302261,31.772478 132.015198,35.185760 
	C132.772537,38.811626 133.727859,42.017799 138.996155,40.983006 
M117.966003,150.866776 
	C118.301910,154.975204 118.637817,159.083649 119.034088,163.930283 
	C120.918381,163.714111 123.124542,163.461014 126.055923,162.973267 
	C130.540604,159.553741 131.373810,158.894806 134.142761,165.379822 
	C134.464172,166.132568 134.897217,166.837128 135.229721,167.585709 
	C137.314896,172.280136 138.116226,172.413116 141.820496,168.653900 
	C146.778366,163.622482 148.805679,163.756989 152.808395,169.419800 
	C153.356720,170.195526 153.791077,171.051804 154.830170,172.798782 
	C156.117783,171.172592 157.504395,170.124634 157.923660,168.775925 
	C160.355591,160.953156 161.363785,160.404160 168.791107,162.953903 
	C170.547318,163.556793 172.529266,163.502075 175.333649,163.872070 
	C174.211288,161.675552 173.564774,160.745316 173.237137,159.713791 
	C171.352936,153.781937 173.187790,151.056473 179.099991,150.272034 
	C181.085175,150.008636 182.956650,148.888138 184.880096,148.159393 
	C183.989258,146.346100 183.348358,144.345673 182.158386,142.756348 
	C179.187027,138.787827 180.174286,135.406235 184.743454,133.904892 
	C186.617752,133.289032 188.270370,131.998428 190.217529,130.906082 
	C189.076736,129.681885 188.497787,128.806122 187.695358,128.256958 
	C186.366547,127.347557 184.852005,126.714264 183.489578,125.848396 
	C179.469650,123.293594 179.403534,121.713715 182.294830,118.030754 
	C183.981506,115.882271 185.045731,113.245140 185.992355,111.542923 
	C181.688675,110.586418 176.613861,110.928505 174.862442,108.680893 
	C172.869446,106.123230 173.843979,101.253151 173.448914,96.410690 
	C170.550858,97.305763 167.712173,97.830780 165.206238,99.043427 
	C161.900345,100.643166 160.930389,99.056122 159.929321,96.336098 
	C159.013824,93.848587 157.591232,91.547707 156.392105,89.164581 
	C154.419281,90.453659 152.441772,91.735680 150.479080,93.039993 
	C150.208008,93.220123 149.985550,93.491463 149.782486,93.753090 
	C147.743256,96.380226 145.723114,96.913811 143.396164,93.983932 
	C141.727524,91.882919 139.813324,89.976921 137.678329,87.619087 
	C135.694382,92.046753 133.849426,96.164261 132.242889,99.749649 
	C127.786034,98.483337 124.229729,97.472900 120.079941,96.293831 
	C120.079941,99.722046 119.429359,102.140305 120.202599,103.950310 
	C122.472115,109.262756 118.500069,109.246704 115.481026,109.983711 
	C113.039207,110.579811 110.511780,110.825188 106.878204,111.410400 
	C108.726494,114.080017 109.835068,116.014915 111.262314,117.676010 
	C114.654549,121.624062 114.133965,123.746086 109.447792,126.085983 
	C107.269936,127.173431 105.443008,128.963715 102.424782,131.200302 
	C104.961952,131.810257 105.781296,131.891495 106.504341,132.199097 
	C113.192360,135.044373 113.853935,137.328232 110.180252,143.597595 
	C109.119286,145.408203 108.586823,147.528503 107.879082,149.335724 
	C111.587585,149.642105 114.574318,149.888855 117.966003,150.866776 
z"/>
<path fill="#FE582C" opacity="1.000000" stroke="none" 
	d="
M140.096558,308.965393 
	C145.732635,306.355652 150.015625,308.582214 154.029465,311.682739 
	C154.639572,312.154022 155.180878,313.741974 154.867767,314.180176 
	C154.061676,315.308319 152.706131,316.915283 151.662872,316.849976 
	C147.398712,316.583008 146.451019,318.159912 145.777176,322.429077 
	C143.680817,335.710358 140.715759,348.858887 137.899536,362.018646 
	C137.322708,364.714142 137.699600,365.765259 140.605499,366.170959 
	C141.846924,366.344269 142.860107,368.152374 143.977005,369.217651 
	C142.715729,370.138367 141.556931,371.297546 140.158279,371.898590 
	C139.174271,372.321503 137.864014,371.980713 136.699478,371.988892 
	C127.914108,372.050629 126.341301,369.853455 128.083496,361.584473 
	C131.568314,345.044617 134.687302,328.427856 138.034119,311.858368 
	C138.237427,310.851776 139.112762,309.980957 140.096558,308.965393 
z"/>
<path fill="#FF6137" opacity="1.000000" stroke="none" 
	d="
M334.788147,174.849854 
	C330.487366,174.849854 326.186584,174.849854 321.505798,174.849854 
	C320.786133,177.610931 320.114227,180.188751 319.395203,182.947266 
	C314.865631,182.403427 311.448029,181.336533 312.909088,175.519867 
	C313.645721,172.587311 313.687134,169.480118 314.644287,166.538513 
	C323.829773,166.412720 332.413910,166.200317 341.259399,166.027328 
	C341.696075,166.049484 341.871429,166.032227 342.046753,166.014984 
	C342.046753,166.014984 341.985077,166.040695 342.230652,166.350861 
	C344.272339,166.794266 346.067200,167.021561 347.864746,167.045013 
	C357.573517,167.171585 367.282898,167.247635 376.992096,167.341095 
	C376.990143,170.932877 377.097717,174.529633 376.934509,178.114059 
	C376.865326,179.633041 376.227509,181.126129 375.848145,182.631012 
	C374.306854,182.012558 372.765594,181.394104 371.088501,180.005020 
	C371.371490,176.209747 370.337646,174.636154 367.000153,174.706406 
	C357.978638,174.896332 348.953735,174.926971 339.930176,175.020813 
	C339.930176,175.020813 340.005280,174.997604 339.847107,174.699615 
	C338.055328,174.551025 336.421753,174.700439 334.788147,174.849854 
z"/>
<path fill="#171818" opacity="1.000000" stroke="none" 
	d="
M334.053864,106.784538 
	C335.041748,111.672424 336.034088,116.093475 337.073364,120.723648 
	C332.812256,123.041992 327.715118,122.713837 324.310730,119.914177 
	C324.850891,113.915367 325.577789,108.338341 325.727112,102.745903 
	C325.775330,100.939903 324.315979,99.088890 323.526154,97.267189 
	C323.109589,96.306435 322.082672,95.123688 322.357330,94.476891 
	C322.678040,93.721695 324.079346,93.128380 325.078400,93.005241 
	C333.109314,92.015274 334.072968,92.889969 334.090363,100.842430 
	C334.094330,102.667488 334.069733,104.492607 334.053864,106.784538 
z"/>
<path fill="#131312" opacity="1.000000" stroke="none" 
	d="
M353.008026,210.989212 
	C361.067383,213.524979 364.817810,222.819473 360.865601,231.196732 
	C359.142548,234.848984 356.723297,238.172791 353.463745,241.556274 
	C353.777374,240.237747 353.756805,238.691422 354.469910,237.645187 
	C356.307251,234.949570 355.983734,233.405640 352.548065,233.013840 
	C356.810211,224.943604 356.810211,224.943604 351.152710,216.900177 
	C352.316803,216.678787 353.291595,216.493393 354.670990,216.231064 
	C354.140778,214.682037 353.628082,213.184128 353.057678,211.343033 
	C353.000000,210.999847 353.008026,210.989212 353.008026,210.989212 
z"/>
<path fill="#191A1A" opacity="1.000000" stroke="none" 
	d="
M346.986176,105.014839 
	C348.916321,104.241692 350.835083,103.438324 352.780609,102.706009 
	C354.078186,102.217567 355.413910,101.830353 356.732544,101.397835 
	C357.118805,103.220955 357.905518,105.080963 357.742279,106.853470 
	C357.643036,107.930519 356.177124,109.600029 355.150879,109.741753 
	C351.758942,110.210197 348.501343,109.711296 347.169067,105.313148 
	C347.001312,104.998062 346.986176,105.014839 346.986176,105.014839 
z"/>
<path fill="#6F706F" opacity="1.000000" stroke="none" 
	d="
M294.247131,154.824982 
	C294.163544,145.237808 294.163544,136.037491 294.163544,125.696243 
	C295.124420,127.186829 295.727631,127.687973 295.732147,128.194427 
	C295.807220,136.648621 295.835541,145.103714 295.760010,153.557602 
	C295.755035,154.113235 294.828613,154.660629 294.247131,154.824982 
z"/>
<path fill="#191A1A" opacity="1.000000" stroke="none" 
	d="
M361.732056,94.723129 
	C361.930481,96.244644 361.885834,97.413483 362.072327,98.544189 
	C362.793610,102.917160 363.588562,107.277969 364.275604,111.185669 
	C359.378967,108.660927 358.317657,106.516754 359.597076,99.787102 
	C360.213593,96.544342 360.383667,93.784515 355.564697,93.643204 
	C355.849304,93.134018 356.133911,92.624825 356.418518,92.115639 
	C358.144073,92.861404 359.869659,93.607178 361.732056,94.723129 
z"/>
<path fill="#131312" opacity="1.000000" stroke="none" 
	d="
M313.740448,224.224808 
	C312.904572,223.709351 312.068726,223.193909 310.885956,222.464554 
	C310.345184,223.684006 309.826721,224.853180 309.308258,226.022354 
	C308.821442,225.955246 308.334656,225.888138 307.847839,225.821014 
	C308.179321,221.188660 308.510773,216.556290 308.842224,211.923920 
	C309.386658,211.938782 309.931091,211.953629 310.475525,211.968475 
	C310.351624,214.324890 310.227722,216.681320 310.103821,219.037735 
	C310.413269,219.132904 310.722717,219.228058 311.032166,219.323212 
	C311.745575,218.048325 312.458984,216.773422 313.172363,215.498535 
	C313.507904,215.508270 313.843445,215.517990 314.178986,215.527725 
	C314.178986,217.993118 314.178986,220.458527 314.083862,223.455322 
	C313.988708,223.986740 313.740448,224.224808 313.740448,224.224808 
z"/>
<path fill="#FBC3B3" opacity="1.000000" stroke="none" 
	d="
M340.156128,175.396973 
	C348.953735,174.926971 357.978638,174.896332 367.000153,174.706406 
	C370.337646,174.636154 371.371490,176.209747 370.953735,179.675140 
	C367.939697,175.551208 363.026276,176.377289 358.691406,176.089935 
	C352.608032,175.686707 346.487030,175.851379 340.156128,175.396973 
z"/>
<path fill="#191A1A" opacity="1.000000" stroke="none" 
	d="
M364.067932,117.628021 
	C364.835327,117.453758 365.415009,117.570175 365.994690,117.686584 
	C365.467346,118.830719 365.074219,120.866409 364.390167,120.969383 
	C360.845337,121.502998 357.220367,121.686790 353.641388,121.543068 
	C353.263611,121.527893 353.003784,118.575401 353.230286,116.933197 
	C356.016754,120.819717 359.939301,121.226082 364.067932,117.628021 
z"/>
<path fill="#191A1A" opacity="1.000000" stroke="none" 
	d="
M343.227814,109.183174 
	C345.965240,110.104889 348.677429,111.113777 351.449371,111.916252 
	C353.163605,112.412514 354.968689,112.594833 356.423401,114.053902 
	C352.872375,114.053902 349.272919,114.404907 345.788177,113.924286 
	C343.645264,113.628723 340.619934,112.819077 342.635468,109.079819 
	C342.994568,108.986931 343.227814,109.183174 343.227814,109.183174 
z"/>
<path fill="#FBBBAA" opacity="1.000000" stroke="none" 
	d="
M376.930145,166.874252 
	C367.282898,167.247635 357.573517,167.171585 347.864746,167.045013 
	C346.067200,167.021561 344.272339,166.794266 342.216736,166.320496 
	C353.594238,166.122421 365.231232,166.264923 376.930145,166.874252 
z"/>
<path fill="#737373" opacity="1.000000" stroke="none" 
	d="
M180.009583,347.907288 
	C180.009552,340.542145 180.009552,333.662720 180.009552,326.783264 
	C180.287476,326.789276 180.565414,326.795319 180.843338,326.801331 
	C180.843338,336.612793 180.843338,346.424255 180.843338,356.235718 
	C180.565430,356.237640 180.287506,356.239563 180.009598,356.241486 
	C180.009598,353.625305 180.009598,351.009125 180.009583,347.907288 
z"/>
<path fill="#1E1E1E" opacity="1.000000" stroke="none" 
	d="
M149.001785,276.996735 
	C148.585403,272.002289 148.169022,267.007874 147.752625,262.013428 
	C148.555725,262.007324 149.358826,262.001251 150.161942,261.995148 
	C149.827255,266.725342 149.492569,271.455505 149.078903,276.592834 
	C148.999908,277.000000 149.001785,276.996735 149.001785,276.996735 
z"/>
<path fill="#FFD2C5" opacity="1.000000" stroke="none" 
	d="
M340.998077,165.987900 
	C332.413910,166.200317 323.829773,166.412720 314.980682,166.347931 
	C316.716705,165.715149 318.712494,165.092117 320.719574,165.053268 
	C327.203186,164.927765 333.691010,165.017090 340.574707,165.348877 
	C340.972229,165.674118 340.998077,165.987900 340.998077,165.987900 
z"/>
<path fill="#090909" opacity="1.000000" stroke="none" 
	d="
M189.489929,357.019104 
	C191.276031,359.108368 192.918243,360.876495 194.263321,362.324646 
	C188.404678,362.009491 188.404678,362.009491 187.297104,354.453064 
	C188.267014,355.515717 188.806534,356.106812 189.489929,357.019104 
z"/>
<path fill="#131312" opacity="1.000000" stroke="none" 
	d="
M323.089111,203.874191 
	C324.311615,204.946976 325.534088,206.019760 326.756592,207.092560 
	C324.973907,208.162201 323.191193,209.231842 321.011627,210.539597 
	C321.899902,207.966476 322.464783,206.330063 323.004395,204.354126 
	C322.979126,204.014572 323.089111,203.874191 323.089111,203.874191 
z"/>
<path fill="#090909" opacity="1.000000" stroke="none" 
	d="
M189.634720,319.571472 
	C189.819794,320.182220 189.950592,321.297333 189.553452,321.536835 
	C188.239258,322.329193 186.734634,322.805756 185.275497,323.414978 
	C184.155060,320.581909 184.155060,320.581909 189.634720,319.571472 
z"/>
<path fill="#131312" opacity="1.000000" stroke="none" 
	d="
M339.010040,212.009888 
	C342.247620,210.540726 345.485168,209.071579 348.722748,207.602432 
	C348.931824,208.148697 349.140930,208.694977 349.350006,209.241257 
	C346.131317,210.063339 342.912598,210.885422 339.346924,211.853790 
	C339.000000,212.000092 339.010040,212.009872 339.010040,212.009888 
z"/>
<path fill="#131312" opacity="1.000000" stroke="none" 
	d="
M342.747345,240.214066 
	C342.275635,239.482681 341.803894,238.751297 341.332153,238.019928 
	C342.767242,237.256271 344.202301,236.492630 345.637390,235.728989 
	C345.936035,236.182678 346.234680,236.636353 346.533325,237.090042 
	C345.548523,237.843750 344.563721,238.597458 343.271637,239.684326 
	C342.964355,240.017471 342.747345,240.214066 342.747345,240.214066 
z"/>
<path fill="#131312" opacity="1.000000" stroke="none" 
	d="
M315.107513,231.870590 
	C317.003540,232.182175 318.899567,232.493774 320.795624,232.805359 
	C320.633850,233.433365 320.472107,234.061371 320.310333,234.689362 
	C318.558960,234.063675 316.807617,233.437973 315.018829,232.409698 
	C314.981415,232.007095 315.107513,231.870590 315.107513,231.870590 
z"/>
<path fill="#131312" opacity="1.000000" stroke="none" 
	d="
M314.242249,205.076141 
	C314.282349,206.636978 314.073456,208.324402 313.864594,210.011841 
	C313.132050,209.808594 312.399536,209.605347 311.666992,209.402115 
	C312.442413,208.002319 313.217865,206.602524 314.242249,205.076141 
z"/>
<path fill="#131312" opacity="1.000000" stroke="none" 
	d="
M343.067139,239.913162 
	C345.091278,240.487869 347.012634,241.166885 348.934021,241.845901 
	C348.699799,242.396408 348.465576,242.946899 348.231354,243.497406 
	C346.469696,242.565796 344.708008,241.634186 342.846863,240.458313 
	C342.747345,240.214066 342.964355,240.017471 343.067139,239.913162 
z"/>
<path fill="#1E1E1E" opacity="1.000000" stroke="none" 
	d="
M148.997513,277.002441 
	C152.182785,277.004883 155.370453,277.004883 158.558105,277.004883 
	C158.552841,277.367371 158.547562,277.729828 158.542297,278.092316 
	C155.570053,277.896088 152.597794,277.699860 149.313660,277.250183 
	C149.001785,276.996735 148.999908,277.000000 148.997513,277.002441 
z"/>
<path fill="#090909" opacity="1.000000" stroke="none" 
	d="
M173.133484,316.791748 
	C174.086014,317.901337 174.990372,319.316010 175.894745,320.730713 
	C175.413803,320.989044 174.932846,321.247406 174.451904,321.505768 
	C173.996384,320.036133 173.540848,318.566467 173.133484,316.791748 
z"/>
<path fill="#090909" opacity="1.000000" stroke="none" 
	d="
M177.573593,361.793823 
	C179.014053,360.936005 180.702164,360.220245 182.390274,359.504456 
	C182.546356,360.081848 182.702454,360.659241 182.858536,361.236633 
	C181.179443,361.469696 179.500336,361.702759 177.573593,361.793823 
z"/>
<path fill="#131312" opacity="1.000000" stroke="none" 
	d="
M355.008240,244.240662 
	C353.549316,244.618637 352.211700,244.724747 350.874084,244.830872 
	C350.893555,244.222076 350.913025,243.613281 350.932465,243.004486 
	C352.331512,243.325928 353.730530,243.647369 355.008240,244.240662 
z"/>
<path fill="#131312" opacity="1.000000" stroke="none" 
	d="
M334.831451,214.862610 
	C335.985016,213.915573 337.138611,212.968536 338.651123,212.015686 
	C339.010040,212.009872 339.000000,212.000092 338.995178,211.995026 
	C337.969086,213.019836 336.947784,214.049698 335.470764,215.048676 
	C335.015076,215.017776 334.831451,214.862610 334.831451,214.862610 
z"/>
<path fill="#131312" opacity="1.000000" stroke="none" 
	d="
M327.836792,224.879547 
	C328.317993,223.581772 328.799164,222.283997 329.280334,220.986206 
	C329.815033,221.268158 330.349762,221.550110 330.884460,221.832062 
	C330.208496,222.873398 329.532501,223.914734 328.446411,224.998489 
	C328.036316,225.040924 327.836792,224.879547 327.836792,224.879547 
z"/>
<path fill="#131312" opacity="1.000000" stroke="none" 
	d="
M316.811127,212.811615 
	C316.022125,213.218109 315.478302,213.440491 314.934479,213.662857 
	C314.741577,213.337189 314.548676,213.011505 314.355774,212.685822 
	C315.630402,211.922592 316.905029,211.159363 318.179657,210.396133 
	C318.374268,210.676376 318.568909,210.956604 318.763550,211.236847 
	C318.194489,211.700378 317.625397,212.163925 316.811127,212.811615 
z"/>
<path fill="#131312" opacity="1.000000" stroke="none" 
	d="
M338.797150,218.833954 
	C339.730835,217.704376 340.664551,216.574799 341.598236,215.445221 
	C341.962585,215.749146 342.326935,216.053070 342.691284,216.356995 
	C341.729553,217.274948 340.767853,218.192886 339.396118,219.061981 
	C338.986084,219.013138 338.797150,218.833954 338.797150,218.833954 
z"/>
<path fill="#131312" opacity="1.000000" stroke="none" 
	d="
M319.123779,227.848160 
	C320.445496,228.230515 321.767212,228.612885 323.088928,228.995239 
	C322.947876,229.399963 322.806793,229.804672 322.665741,230.209396 
	C321.473694,229.723587 320.281677,229.237778 319.039062,228.372223 
	C318.988464,227.992493 319.123779,227.848160 319.123779,227.848160 
z"/>
<path fill="#131312" opacity="1.000000" stroke="none" 
	d="
M317.241577,201.574615 
	C316.485901,202.310013 315.535248,202.818146 314.584625,203.326263 
	C314.398804,202.903076 314.212982,202.479889 314.027130,202.056686 
	C315.033630,201.820251 316.040100,201.583801 317.241577,201.574615 
z"/>
<path fill="#191A1A" opacity="1.000000" stroke="none" 
	d="
M361.926208,115.637650 
	C361.322205,115.056976 361.008148,114.435020 360.694092,113.813065 
	C361.116516,113.755440 361.538971,113.697815 361.961426,113.640198 
	C362.046326,114.292252 362.131256,114.944305 361.926208,115.637650 
z"/>
<path fill="#090909" opacity="1.000000" stroke="none" 
	d="
M187.552353,339.915588 
	C187.070618,339.980591 186.630188,339.811493 186.189774,339.642395 
	C186.328918,339.379486 186.468063,339.116577 186.607208,338.853668 
	C186.936035,339.129608 187.264847,339.405548 187.552353,339.915588 
z"/>
<path fill="#131312" opacity="1.000000" stroke="none" 
	d="
M326.086700,233.067886 
	C325.457092,233.631088 324.827484,234.194275 324.197876,234.757477 
	C324.008728,234.527710 323.819580,234.297943 323.630432,234.068192 
	C324.196075,233.689865 324.761719,233.311554 325.664734,232.961533 
	C326.002136,232.989822 326.086700,233.067886 326.086700,233.067886 
z"/>
<path fill="#191A1A" opacity="1.000000" stroke="none" 
	d="
M347.007996,104.988434 
	C346.321960,105.236443 345.629303,105.494072 344.936615,105.751701 
	C344.881531,105.341545 344.826477,104.931381 344.771393,104.521225 
	C345.488068,104.521225 346.204712,104.521225 346.953796,104.768036 
	C346.986176,105.014839 347.001312,104.998062 347.007996,104.988434 
z"/>
<path fill="#131312" opacity="1.000000" stroke="none" 
	d="
M335.107117,215.095062 
	C334.873199,215.994659 334.547241,216.816971 334.221283,217.639282 
	C333.947266,217.528854 333.673279,217.418427 333.399261,217.307999 
	C333.708801,216.606628 334.018372,215.905273 334.579681,215.033264 
	C334.831451,214.862610 335.015076,215.017776 335.107117,215.095062 
z"/>
<path fill="#FBC3B3" opacity="1.000000" stroke="none" 
	d="
M335.223877,174.922241 
	C336.421753,174.700439 338.055328,174.551025 339.858917,174.737091 
	C338.572479,175.046600 337.116028,175.020615 335.223877,174.922241 
z"/>
<path fill="#090909" opacity="1.000000" stroke="none" 
	d="
M176.526611,364.959351 
	C176.827728,364.839478 177.125381,364.907837 177.423035,364.976166 
	C177.123077,365.033295 176.823120,365.090454 176.526611,364.959351 
z"/>
<path fill="#131312" opacity="1.000000" stroke="none" 
	d="
M314.106750,223.861633 
	C314.833038,224.237503 315.441284,224.738464 316.036621,225.620651 
	C316.023682,226.001877 315.858429,226.175110 315.858429,226.175110 
	C315.236115,225.707108 314.613770,225.239105 313.865967,224.497955 
	C313.740448,224.224808 313.988708,223.986740 314.106750,223.861633 
z"/>
<path fill="#090909" opacity="1.000000" stroke="none" 
	d="
M180.473892,323.968384 
	C180.793091,323.840057 181.110764,323.913208 181.428421,323.986359 
	C181.109726,324.047546 180.791046,324.108704 180.473892,323.968384 
z"/>
<path fill="#131312" opacity="1.000000" stroke="none" 
	d="
M331.823395,228.486588 
	C331.980225,228.172012 332.267822,227.994049 332.555450,227.816101 
	C332.355011,228.085129 332.154602,228.354172 331.823395,228.486588 
z"/>
<path fill="#131312" opacity="1.000000" stroke="none" 
	d="
M322.922363,204.083344 
	C322.289886,204.062637 321.714142,203.973145 321.138428,203.883667 
	C321.141785,203.714539 321.145172,203.545410 321.148560,203.376282 
	C321.673218,203.409958 322.197845,203.443619 322.905823,203.675735 
	C323.089111,203.874191 322.979126,204.014572 322.922363,204.083344 
z"/>
<path fill="#131312" opacity="1.000000" stroke="none" 
	d="
M329.488464,231.113464 
	C329.573181,230.785172 329.766724,230.588959 329.960236,230.392761 
	C329.839264,230.677017 329.718262,230.961273 329.488464,231.113464 
z"/>
<path fill="#090909" opacity="1.000000" stroke="none" 
	d="
M195.121323,365.081390 
	C194.659286,365.460907 194.197250,365.840424 193.735199,366.219940 
	C193.965500,365.802368 194.195801,365.384796 194.718506,364.974915 
	C195.010895,364.982544 195.121323,365.081390 195.121323,365.081390 
z"/>
<path fill="#131312" opacity="1.000000" stroke="none" 
	d="
M350.238220,234.411163 
	C350.181671,234.600098 350.048920,234.664154 349.916138,234.728210 
	C349.998077,234.580902 350.080048,234.433578 350.238220,234.411163 
z"/>
<path fill="#191A1A" opacity="1.000000" stroke="none" 
	d="
M342.878265,108.888443 
	C342.993317,108.427605 343.224670,108.065247 343.456055,107.702896 
	C343.490051,108.084854 343.524078,108.466812 343.392944,109.015976 
	C343.227814,109.183174 342.994568,108.986931 342.878265,108.888443 
z"/>
<path fill="#090909" opacity="1.000000" stroke="none" 
	d="
M177.386368,322.184204 
	C177.355347,322.156677 177.417389,322.211731 177.386368,322.184204 
z"/>
<path fill="#131312" opacity="1.000000" stroke="none" 
	d="
M335.818298,223.555115 
	C335.868256,223.402023 335.973755,223.351303 336.079224,223.300568 
	C336.010742,223.419556 335.942261,223.538528 335.818298,223.555115 
z"/>
<path fill="#131312" opacity="1.000000" stroke="none" 
	d="
M310.228271,229.008698 
	C310.406982,228.892670 310.586578,228.949417 310.766174,229.006165 
	C310.587158,229.064590 310.408173,229.123016 310.228271,229.008698 
z"/>
<path fill="#131312" opacity="1.000000" stroke="none" 
	d="
M327.094482,227.067200 
	C326.670990,227.185974 326.247498,227.304764 325.824005,227.423553 
	C326.039612,227.270676 326.255249,227.117813 326.731720,226.975250 
	C326.992584,226.985550 327.094482,227.067200 327.094482,227.067200 
z"/>
<path fill="#131312" opacity="1.000000" stroke="none" 
	d="
M326.943726,226.942245 
	C327.083466,226.368423 327.272034,225.837906 327.648682,225.093475 
	C327.836792,224.879547 328.036316,225.040924 328.137024,225.124084 
	C327.993927,225.702713 327.750122,226.198166 327.300415,226.880402 
	C327.094482,227.067200 326.992584,226.985550 326.943726,226.942245 
z"/>
<path fill="#131312" opacity="1.000000" stroke="none" 
	d="
M334.983643,225.251419 
	C335.094604,225.428177 335.037994,225.606339 334.981415,225.784515 
	C334.926300,225.607285 334.871185,225.430069 334.983643,225.251419 
z"/>
<path fill="#131312" opacity="1.000000" stroke="none" 
	d="
M318.916565,228.060486 
	C318.771790,227.942398 318.698853,227.756348 318.625916,227.570297 
	C318.729675,227.591934 318.833466,227.613556 319.030518,227.741669 
	C319.123779,227.848160 318.988464,227.992493 318.916565,228.060486 
z"/>
<path fill="#131312" opacity="1.000000" stroke="none" 
	d="
M339.076660,219.106644 
	C338.976685,219.151901 338.786102,219.103653 338.696350,218.944687 
	C338.797150,218.833954 338.986084,219.013138 339.076660,219.106644 
z"/>
<path fill="#090909" opacity="1.000000" stroke="none" 
	d="
M194.962463,364.926483 
	C194.914032,364.870422 195.248749,364.577728 195.248749,364.577728 
	C195.248749,364.577728 195.299255,364.930634 195.210297,365.006012 
	C195.121323,365.081390 195.010895,364.982544 194.962463,364.926483 
z"/>
<path fill="#191A1A" opacity="1.000000" stroke="none" 
	d="
M349.769470,98.796768 
	C350.005768,98.865723 350.242035,98.934677 350.237091,99.010056 
	C349.995850,99.016487 349.769470,98.796776 349.769470,98.796768 
z"/>
<path fill="#191A1A" opacity="1.000000" stroke="none" 
	d="
M350.106689,99.128754 
	C349.985992,99.176041 349.754517,99.111061 349.646240,98.921432 
	C349.769470,98.796776 349.995850,99.016487 350.106689,99.128754 
z"/>
<path fill="#191A1A" opacity="1.000000" stroke="none" 
	d="
M348.466095,101.507477 
	C348.443542,101.462730 348.488647,101.552216 348.466095,101.507477 
z"/>
<path fill="#131312" opacity="1.000000" stroke="none" 
	d="
M316.110840,225.919830 
	C316.255981,226.023407 316.314026,226.209061 316.372040,226.394684 
	C316.268127,226.382309 316.164246,226.369934 315.959381,226.266327 
	C315.858429,226.175110 316.023682,226.001877 316.110840,225.919830 
z"/>
<path fill="#131312" opacity="1.000000" stroke="none" 
	d="
M352.994812,211.003876 
	C352.989655,211.007919 352.619751,210.770920 352.619751,210.770920 
	C352.619751,210.770920 352.916046,210.776215 352.962036,210.882721 
	C353.008026,210.989212 353.000000,210.999847 352.994812,211.003876 
z"/>
<path fill="#090909" opacity="1.000000" stroke="none" 
	d="
M176.525177,315.485413 
	C176.540619,315.517578 176.509735,315.453278 176.525177,315.485413 
z"/>
<path fill="#FBBBAA" opacity="1.000000" stroke="none" 
	d="
M341.259399,166.027328 
	C340.998077,165.987900 340.972229,165.674118 341.018005,165.523987 
	C341.361298,165.356674 341.597961,165.468506 341.910248,165.862152 
	C341.871429,166.032227 341.696075,166.049484 341.259399,166.027328 
z"/>
<path fill="#131312" opacity="1.000000" stroke="none" 
	d="
M313.924225,231.090805 
	C313.924225,231.090805 313.581757,230.773682 313.581757,230.773682 
	C313.581757,230.773682 313.941193,230.729477 313.968384,230.870056 
	C313.995544,231.010635 313.924225,231.090805 313.924225,231.090805 
z"/>
<path fill="#131312" opacity="1.000000" stroke="none" 
	d="
M314.913025,232.069977 
	C314.553589,231.988953 314.316925,231.782654 314.029449,231.302399 
	C313.924225,231.090805 313.995544,231.010635 314.036377,230.972931 
	C314.380920,231.048141 314.636047,231.229416 314.975037,231.674820 
	C315.107513,231.870590 314.981415,232.007095 314.913025,232.069977 
z"/>
<path fill="#131312" opacity="1.000000" stroke="none" 
	d="
M325.963440,232.947235 
	C325.924713,232.904633 326.243561,232.595047 326.243561,232.595047 
	C326.243561,232.595047 326.270538,232.927170 326.178619,232.997528 
	C326.086700,233.067886 326.002136,232.989822 325.963440,232.947235 
z"/>
<path fill="#131312" opacity="1.000000" stroke="none" 
	d="
M332.539246,219.550659 
	C332.483124,219.584152 332.595398,219.517181 332.539246,219.550659 
z"/>
<path fill="#000000" opacity="1.000000" stroke="none" 
	d="
M117.561050,150.135605 
	C114.574318,149.888855 111.587585,149.642105 107.879082,149.335724 
	C108.586823,147.528503 109.119286,145.408203 110.180252,143.597595 
	C113.853935,137.328232 113.192360,135.044373 106.504341,132.199097 
	C105.781296,131.891495 104.961952,131.810257 102.424782,131.200302 
	C105.443008,128.963715 107.269936,127.173431 109.447792,126.085983 
	C114.133965,123.746086 114.654549,121.624062 111.262314,117.676010 
	C109.835068,116.014915 108.726494,114.080017 106.878204,111.410400 
	C110.511780,110.825188 113.039207,110.579811 115.481026,109.983711 
	C118.500069,109.246704 122.472115,109.262756 120.202599,103.950310 
	C119.429359,102.140305 120.079941,99.722046 120.079941,96.293831 
	C124.229729,97.472900 127.786034,98.483337 132.242889,99.749649 
	C133.849426,96.164261 135.694382,92.046753 137.678329,87.619087 
	C139.813324,89.976921 141.727524,91.882919 143.396164,93.983932 
	C145.723114,96.913811 147.743256,96.380226 149.782486,93.753090 
	C149.985550,93.491463 150.208008,93.220123 150.479080,93.039993 
	C152.441772,91.735680 154.419281,90.453659 156.392105,89.164581 
	C157.591232,91.547707 159.013824,93.848587 159.929321,96.336098 
	C160.930389,99.056122 161.900345,100.643166 165.206238,99.043427 
	C167.712173,97.830780 170.550858,97.305763 173.448914,96.410690 
	C173.843979,101.253151 172.869446,106.123230 174.862442,108.680893 
	C176.613861,110.928505 181.688675,110.586418 185.992355,111.542923 
	C185.045731,113.245140 183.981506,115.882271 182.294830,118.030754 
	C179.403534,121.713715 179.469650,123.293594 183.489578,125.848396 
	C184.852005,126.714264 186.366547,127.347557 187.695358,128.256958 
	C188.497787,128.806122 189.076736,129.681885 190.217529,130.906082 
	C188.270370,131.998428 186.617752,133.289032 184.743454,133.904892 
	C180.174286,135.406235 179.187027,138.787827 182.158386,142.756348 
	C183.348358,144.345673 183.989258,146.346100 184.880096,148.159393 
	C182.956650,148.888138 181.085175,150.008636 179.099991,150.272034 
	C173.187790,151.056473 171.352936,153.781937 173.237137,159.713791 
	C173.564774,160.745316 174.211288,161.675552 175.333649,163.872070 
	C172.529266,163.502075 170.547318,163.556793 168.791107,162.953903 
	C161.363785,160.404160 160.355591,160.953156 157.923660,168.775925 
	C157.504395,170.124634 156.117783,171.172592 154.830170,172.798782 
	C153.791077,171.051804 153.356720,170.195526 152.808395,169.419800 
	C148.805679,163.756989 146.778366,163.622482 141.820496,168.653900 
	C138.116226,172.413116 137.314896,172.280136 135.229721,167.585709 
	C134.897217,166.837128 134.464172,166.132568 134.142761,165.379822 
	C131.373810,158.894806 130.540604,159.553741 125.329041,163.048752 
	C123.172966,163.124237 121.743759,163.124237 120.037254,163.124237 
	C120.408226,159.495285 121.070236,156.440323 120.852257,153.449478 
	C120.766380,152.271149 118.716560,151.235977 117.561050,150.135605 
z"/>
<path fill="#FFB19C" opacity="1.000000" stroke="none" 
	d="
M117.763527,150.501190 
	C118.716560,151.235977 120.766380,152.271149 120.852257,153.449478 
	C121.070236,156.440323 120.408226,159.495285 120.037254,163.124237 
	C121.743759,163.124237 123.172966,163.124237 124.966438,163.166077 
	C123.124542,163.461014 120.918381,163.714111 119.034088,163.930283 
	C118.637817,159.083649 118.301910,154.975204 117.763527,150.501190 
z"/>
</svg>